<svg xmlns="http://www.w3.org/2000/svg" viewBox="0 0 624.5 152.71"><g id="Ebene_2" data-name="Ebene 2"><g id="WORKBOARD"><path d="M137.14,60.3c-1.13.85-2,1.64-3.07,2.28-3.67,2.29-7.34,4.58-11.07,6.77a6.42,6.42,0,0,1-3,1q-9.91.12-19.86,0a.13.13,0,0,0,0,.06,1.91,1.91,0,0,1-1.32-.53,2,2,0,0,1-.59-1.29,29.45,29.45,0,0,0-58.78,0,1.92,1.92,0,0,1-1.9,1.82V70.3q-9.93.12-19.86,0a6.42,6.42,0,0,1-3-1C11,67.16,7.3,64.87,3.63,62.58c-1-.64-1.94-1.43-3.07-2.28L18.5,55.43,6.19,41.36H24.64l-8-17.06,17.87,5.64c-1-6.42-2-12.53-3.05-19l15.59,11c.78-6.45,1.53-12.55,2.32-19,4.1,5,8,9.68,12,14.51L68.85,0c2.52,5.88,5,11.63,7.44,17.41,4-4.83,7.92-9.55,12-14.51.79,6.48,1.54,12.58,2.32,19L106.22,11c-1,6.43-2,12.54-3,19l17.88-5.64c-2.74,5.83-5.36,11.43-8,17.06h18.45l-12.3,14.07Z"/><path d="M112.2,102.79c4,4.62,7.77,8.89,11.63,13.29a30.76,30.76,0,0,1-10.32.73,20,20,0,0,1-9.87-3.57l8,13.06c-1.9,0-3.44.1-5,0-6.76-.5-12.26-3.67-17.08-8.22L84,112.77c2.79,11.93,5.5,23.48,8.24,35.22-7.52-1.74-13-5.58-15.87-12.81-1.43,6.38-2.93,12.52-7.5,17.53-4.57-5-6.07-11.15-7.5-17.53C58.47,142.41,53,146.25,45.48,148c2.75-11.74,5.45-23.29,8.24-35.22l-5.59,5.29c-4.82,4.55-10.32,7.72-17.08,8.22-1.53.12-3.07,0-5,0l8-13.06a20,20,0,0,1-9.87,3.57,30.76,30.76,0,0,1-10.32-.73c3.86-4.4,7.59-8.67,11.63-13.29-8.42,3-15.61,1.25-22.32-4.05l14.93-7.93C8.89,90,2.83,85.54,0,76.36H56c1.47-.16,1.85-.9,2.26-3.07.68-3.56,1.2-7.17,2.18-10.65a8.81,8.81,0,0,1,8.55-6.28c1.45,0,2.89,0,4.33,0,2.14,0,3.21,1,3.63,3.09.18.94.36,1.88.55,2.89,2.07.34,4.71-.66,5.92,1.55,1.11,2,1.5,4.45,2.29,6.47H79a35.36,35.36,0,0,0,.75,4.41,2,2,0,0,0,1.77,1.59H137.7c-2.83,9.18-8.89,13.63-18.11,14.45l14.93,7.93C127.81,104,120.63,105.79,112.2,102.79Z"/><path d="M220.5,42.36v57h-9.07L189.5,68.41v31h-13v-57h9.06L207.5,73.3V42.36Z"/><path d="M266.5,86.36v13h-36v-57h35v12h-22v10h20v12h-20v10Z"/><path d="M269,42.36h13.68l9.85,39.9,11-39.9h10.58l11,39.9,9.85-39.9h13.68l-15.72,57H318.05l-9.28-33.63-9.28,33.63H284.67Z"/><path d="M371.38,86.15l11.17-6.48c2,4.7,5.5,7.85,11.89,7.85,6.15,0,7.69-2.43,7.69-4.61,0-3.48-3.24-4.85-11.73-7.2s-16.67-6.39-16.67-17.23,9.22-17.23,19-17.23c9.31,0,16.59,4.45,20.71,12.78l-10.92,6.39c-1.94-4.05-4.61-6.55-9.79-6.55-4,0-6.07,2-6.07,4.28,0,2.59,1.38,4.37,10.2,7,8.57,2.59,18.2,5.58,18.2,17.56,0,10.92-8.74,17.39-21,17.39C382.14,100.14,374.54,94.48,371.38,86.15Z"/><path d="M418.71,70.69a29.45,29.45,0,1,1,29.45,29.45A29.19,29.19,0,0,1,418.71,70.69Zm46,0c0-10.11-7.28-16.82-16.5-16.82s-16.5,6.71-16.5,16.82,7.28,16.83,16.5,16.83S464.66,80.81,464.66,70.69Z"/><path d="M483.5,80.7V42.36h13V79.57c0,4.29,2,7.93,9,7.93s9-3.64,9-7.93V42.36h13V80.7c0,12.14-9.46,19.42-22,19.42S483.5,92.84,483.5,80.7Z"/><path d="M575.5,55.36h-15v44h-13v-44h-14v-13h42Z"/><path d="M624.5,42.36v56h-13v-22h-18v22h-13v-56h13v22h18v-22Z"/></g></g></svg>