<svg xmlns="http://www.w3.org/2000/svg" viewBox="0 0 624.5 152.22"><defs><style>.cls-1{fill:#fff;}</style></defs><g id="Ebene_2" data-name="Ebene 2"><g id="WORKBOARD"><path class="cls-1" d="M137.14,60.3c-1.13.85-2,1.64-3.07,2.28-3.67,2.29-7.34,4.58-11.07,6.77a6.42,6.42,0,0,1-3,1q-9.91.12-19.86,0a.13.13,0,0,0,0,.06,1.91,1.91,0,0,1-1.32-.53,2,2,0,0,1-.59-1.29,29.45,29.45,0,0,0-58.78,0,1.92,1.92,0,0,1-1.9,1.82V70.3q-9.93.12-19.86,0a6.42,6.42,0,0,1-3-1C11,67.16,7.3,64.87,3.63,62.58c-1-.64-1.94-1.43-3.07-2.28L18.5,55.43,6.19,41.36H24.64l-8-17.06,17.87,5.64c-1-6.42-2-12.53-3.05-19l15.59,11c.78-6.45,1.53-12.55,2.32-19,4.1,5,8,9.68,12,14.51L68.85,0c2.52,5.88,5,11.63,7.44,17.41,4-4.83,7.92-9.55,12-14.51.79,6.48,1.54,12.58,2.32,19L106.22,11c-1,6.43-2,12.54-3,19l17.88-5.64c-2.74,5.83-5.36,11.43-8,17.06h18.45l-12.3,14.07Z"/><path class="cls-1" d="M112.2,102.31l11.63,13.29a31,31,0,0,1-10.32.72,20,20,0,0,1-9.87-3.57l8,13.06c-1.9,0-3.44.1-5,0-6.76-.5-12.26-3.67-17.08-8.22-1.78-1.67-3.55-3.35-5.59-5.28,2.79,11.92,5.5,23.47,8.24,35.22-7.52-1.75-13-5.59-15.87-12.82-1.43,6.38-2.93,12.52-7.5,17.53-4.57-5-6.07-11.15-7.5-17.53-2.88,7.23-8.35,11.07-15.87,12.82l8.24-35.22c-2,1.93-3.81,3.61-5.59,5.28-4.82,4.55-10.32,7.72-17.08,8.22-1.53.12-3.07,0-5,0l8-13.06a19.91,19.91,0,0,1-9.87,3.57,31,31,0,0,1-10.32-.72L25.5,102.31c-8.42,3-15.61,1.24-22.32-4.06l14.93-7.93C8.89,89.5,2.83,85.05,0,76.36H56c1.47-.65,1.85-1.38,2.26-3.56.68-3.56,1.2-7.17,2.18-10.65a8.81,8.81,0,0,1,8.55-6.28c1.45,0,2.89,0,4.33,0,2.14,0,3.21,1,3.63,3.08.18.94.36,1.88.55,2.89,2.07.34,4.71-.66,5.92,1.56,1.11,2,1.5,4.45,2.29,7H79c.26,1.44.42,2.7.75,3.92a3.55,3.55,0,0,0,1.77,2.08H137.7c-2.83,8.69-8.89,13.14-18.11,14l14.93,7.93C127.81,103.55,120.63,105.3,112.2,102.31Z"/><path class="cls-1" d="M220.5,41.36v57h-9.07L189.5,67.41v31h-13v-57h9.06L207.5,72.3V41.36Z"/><path class="cls-1" d="M266.5,86.36v12h-36v-57h35v13h-22v10h20v12h-20v10Z"/><path class="cls-1" d="M269,41.36h13.68l9.85,39.9,11-39.9h10.58l11,39.9,9.85-39.9h13.68l-15.72,57H318.05l-9.28-33.63-9.28,33.63H284.67Z"/><path class="cls-1" d="M371.38,85.66l11.17-6.47c2,4.69,5.5,7.84,11.89,7.84,6.15,0,7.69-2.42,7.69-4.61,0-3.48-3.24-4.85-11.73-7.2S373.73,68.83,373.73,58s9.22-17.23,19-17.23c9.31,0,16.59,4.45,20.71,12.78l-10.92,6.39c-1.94-4-4.61-6.55-9.79-6.55-4,0-6.07,2-6.07,4.29,0,2.59,1.38,4.36,10.2,7,8.57,2.59,18.2,5.59,18.2,17.56,0,10.92-8.74,17.39-21,17.39C382.14,99.65,374.54,94,371.38,85.66Z"/><path class="cls-1" d="M418.71,70.21a29.45,29.45,0,1,1,29.45,29.44A29.2,29.2,0,0,1,418.71,70.21Zm46,0c0-10.12-7.28-16.83-16.5-16.83s-16.5,6.71-16.5,16.83S438.94,87,448.16,87,464.66,80.32,464.66,70.21Z"/><path class="cls-1" d="M483.5,80.7V42.36h13V79.57c0,4.29,2,7.93,9,7.93s9-3.64,9-7.93V42.36h13V80.7c0,12.14-9.46,19.42-22,19.42S483.5,92.84,483.5,80.7Z"/><path class="cls-1" d="M575.5,54.36h-15v44h-13v-44h-14v-12h42Z"/><path class="cls-1" d="M624.5,41.36v57h-13v-22h-18v22h-13v-57h13v22h18v-22Z"/></g></g></svg>