<svg xmlns="http://www.w3.org/2000/svg" viewBox="0 0 173.35 190.93"><defs><style>.cls-1{fill:#f9af1c;}</style></defs><g id="Ebene_2" data-name="Ebene 2"><g id="WORKBOARD"><path class="cls-1" d="M172.34,75.65c-1.41,1-2.57,2-3.85,2.85-4.6,2.88-9.21,5.75-13.89,8.5a8,8,0,0,1-3.76,1.18q-12.45.15-24.91,0v.08a2.37,2.37,0,0,1-1.64-.66,2.44,2.44,0,0,1-.75-1.62,36.94,36.94,0,0,0-73.73,0,2.41,2.41,0,0,1-2.39,2.28v-.08q-12.45.16-24.91,0A8,8,0,0,1,18.75,87c-4.68-2.75-9.29-5.62-13.89-8.5C3.58,77.7,2.42,76.7,1,75.65l22.5-6.12L8.07,51.88H31.22c-3.3-7.06-6.59-14.08-10-21.4l22.42,7.08c-1.29-8.06-2.53-15.72-3.82-23.79,6.6,4.64,12.87,9,19.55,13.75,1-8.1,1.93-15.75,2.92-23.88,5.14,6.22,10.06,12.15,15.07,18.19C80.44,14.59,83.52,7.37,86.68,0,89.83,7.37,92.91,14.59,96,21.83c5-6,9.93-12,15.08-18.19,1,8.13,1.92,15.78,2.91,23.88l19.55-13.75c-1.29,8.07-2.52,15.73-3.82,23.79l22.42-7.08c-3.42,7.32-6.71,14.34-10,21.4h23.15L149.84,69.53Z"/><path class="cls-1" d="M141.25,128.09l14.64,16.73a38.88,38.88,0,0,1-13,.91,25,25,0,0,1-12.42-4.5l10.05,16.45c-2.4,0-4.34.12-6.26,0-8.51-.64-15.43-4.63-21.5-10.36-2.24-2.1-4.46-4.22-7-6.65L116.1,185c-9.47-2.2-16.35-7-20-16.13-1.8,8-3.69,15.76-9.44,22.07-5.76-6.31-7.64-14-9.44-22.07-3.64,9.1-10.52,13.93-20,16.13l10.37-44.34c-2.56,2.43-4.79,4.55-7,6.65-6.07,5.73-13,9.72-21.51,10.36-1.92.14-3.86,0-6.25,0,3.38-5.55,6.57-10.77,10-16.45a25,25,0,0,1-12.42,4.5,38.88,38.88,0,0,1-13-.91l14.65-16.73C21.5,131.86,12.45,129.65,4,123l18.8-10C11.19,112,3.57,106.36,0,94.88H70.43c1.86-.27,2.33-1.2,2.85-3.93.86-4.49,1.51-9,2.74-13.42,1.35-4.81,5.73-7.77,10.78-7.9,1.81,0,3.63,0,5.45,0,2.68,0,4,1.21,4.56,3.88.23,1.19.45,2.37.69,3.64,2.61.43,5.93-.83,7.46,2,1.39,2.55,1.88,5.6,2.88,8.76H99.39c.33,1.8.53,3.39.94,4.93a2.63,2.63,0,0,0,2.24,2.07h70.78C169.78,106.36,162.16,112,150.56,113l18.79,10C160.9,129.65,151.86,131.86,141.25,128.09Z"/></g></g></svg>