<svg xmlns="http://www.w3.org/2000/svg" viewBox="0 0 374 49.23"><defs><style>.cls-1{fill:#f9af1c;}</style></defs><g id="Ebene_2" data-name="Ebene 2"><g id="WORKBOARD"><path class="cls-1" d="M38,1.12v47H29.56L11,22.61V48.12H0v-47H8.44L27,26.64V1.12Z"/><path class="cls-1" d="M76,37.12v11H46v-47H75v10H56v8H73v10H56v8Z"/><path class="cls-1" d="M78.14,1.12H89.42L97.54,34l9.07-32.9h8.73L124.4,34l8.12-32.9H143.8l-13,47H118.63L111,20.39l-7.65,27.73H91.1Z"/><path class="cls-1" d="M163.12,37.39l9.3-5.39c1.68,3.91,4.58,6.54,9.9,6.54,5.12,0,6.4-2,6.4-3.84,0-2.9-2.69-4-9.77-6s-13.88-5.32-13.88-14.35S172.75,0,180.91,0a18.29,18.29,0,0,1,17.24,10.65L189.06,16c-1.62-3.37-3.84-5.46-8.15-5.46-3.37,0-5.06,1.69-5.06,3.57,0,2.16,1.15,3.64,8.49,5.86,7.14,2.16,15.16,4.65,15.16,14.62,0,9.1-7.28,14.49-17.52,14.49C172.08,49.05,165.75,44.33,163.12,37.39Z"/><path class="cls-1" d="M202.53,24.52a24.53,24.53,0,0,1,49.05,0,24.53,24.53,0,1,1-49.05,0Zm38.27,0c0-8.42-6.06-14-13.74-14s-13.75,5.59-13.75,14,6.07,14,13.75,14S240.8,33,240.8,24.52Z"/><path class="cls-1" d="M257,33.06V1.12h11v31c0,3.57,1.7,6.6,7.5,6.6s7.5-3,7.5-6.6v-31h10V33.06c0,10.11-7.73,16.17-18,16.17S257,43.17,257,33.06Z"/><path class="cls-1" d="M333,11.12H321v37H310v-37H298v-10h35Z"/><path class="cls-1" d="M374,1.12v47H363v-19H348v19H337v-47h11v18h15v-18Z"/></g></g></svg>