<svg xmlns="http://www.w3.org/2000/svg" viewBox="0 0 374 49.05"><g id="Ebene_2" data-name="Ebene 2"><g id="WORKBOARD"><path d="M38,.64v47H29.56L11,22.13V47.64H0V.64H8.44L27,26.15V.64Z"/><path d="M75,37.64v10H45V.64H75v10H56v9H73v10H56v8Z"/><path d="M78.1.64H89.38l8.13,32.9L106.57.64h8.73l9.06,32.9L132.49.64h11.28l-13,47H118.59l-7.66-27.73-7.65,27.73H91.06Z"/><path d="M163.08,37.39l9.3-5.39c1.68,3.91,4.58,6.54,9.9,6.54,5.12,0,6.4-2,6.4-3.84,0-2.9-2.69-4-9.77-6S165,23.38,165,14.35,172.72,0,180.87,0a18.3,18.3,0,0,1,17.25,10.65L189,16c-1.62-3.37-3.84-5.46-8.15-5.46-3.37,0-5.05,1.69-5.05,3.57,0,2.16,1.14,3.64,8.48,5.86,7.15,2.16,15.16,4.65,15.16,14.62,0,9.1-7.27,14.49-17.51,14.49C172,49.05,165.71,44.33,163.08,37.39Z"/><path d="M202.5,24.52a24.53,24.53,0,0,1,49.05,0,24.53,24.53,0,1,1-49.05,0Zm38.27,0c0-8.42-6.07-14-13.75-14s-13.74,5.59-13.74,14,6.06,14,13.74,14S240.77,33,240.77,24.52Z"/><path d="M257,32.58V.64h11v31c0,3.57,1.7,6.61,7.5,6.61s7.5-3,7.5-6.61V.64h10V32.58c0,10.1-7.73,16.17-18,16.17S257,42.68,257,32.58Z"/><path d="M333,11.64H321v37H310v-37H298V.64h35Z"/><path d="M374,.64v48H363v-19H348v19H337V.64h11v18h15V.64Z"/></g></g></svg>